<svg width="80" height="80" viewBox="0 0 80 80" fill="none" xmlns="http://www.w3.org/2000/svg">
<path d="M39.7557 0.00708394C39.7557 0.00708394 63.2491 -1.04719 75.7047 22.5672H37.7566C37.7566 22.5672 30.5951 22.3364 24.4775 31.0245C22.7202 34.671 20.8312 38.4274 22.951 45.8304C19.8974 40.657 6.73926 17.7456 6.73926 17.7456C6.73926 17.7456 16.0203 0.940643 39.7554 0.00708394H39.7557Z" fill="#EF3F36"/>
<path d="M74.4852 59.956C74.4852 59.956 63.6443 80.8355 36.9766 79.8031C40.2716 74.1026 55.9559 46.9405 55.9559 46.9405C55.9559 46.9405 59.7454 40.8556 55.275 31.2122C53.0012 27.8622 50.6836 24.3585 43.2152 22.4911C49.2232 22.4365 75.6386 22.4911 75.6386 22.4911C75.6386 22.4911 85.5344 38.9336 74.4852 59.956Z" fill="#FCD900"/>
<path d="M5.19047 60.1201C5.19047 60.1201 -7.47356 40.2949 6.76096 17.7129C10.0451 23.4134 25.7294 50.5755 25.7294 50.5755C25.7294 50.5755 29.1124 56.9021 39.6894 57.8463C43.7206 57.5499 47.9162 57.2973 53.2764 51.7727C50.3213 57.001 37.064 79.8465 37.064 79.8465C37.064 79.8465 17.8651 80.198 5.19016 60.1201H5.19047Z" fill="#61BC5B"/>
<path d="M36.9658 79.9998L42.3036 57.7254C42.3036 57.7254 48.1688 57.2638 53.0896 51.8711C50.036 57.2423 36.9658 79.9998 36.9658 79.9998Z" fill="#5AB055"/>
<path d="M21.874 40.251C21.874 30.4319 29.8372 22.4688 39.6562 22.4688C49.4753 22.4688 57.4385 30.4319 57.4385 40.251C57.4385 50.0703 49.4753 58.0332 39.6562 58.0332C29.8372 58.0223 21.874 50.0703 21.874 40.251Z" fill="white"/>
<path d="M24.8506 40.2509C24.8506 32.0794 31.4738 25.4453 39.6565 25.4453C47.8281 25.4453 54.4622 32.0685 54.4622 40.2509C54.4622 48.4228 47.8393 55.0569 39.6565 55.0569C31.4847 55.0569 24.8506 48.4228 24.8506 40.2509Z" fill="url(#paint0_linear_525_24818)"/>
<path d="M75.6273 22.501L53.6492 28.9483C53.6492 28.9483 50.3323 24.0824 43.2041 22.501C49.3878 22.468 75.6273 22.501 75.6273 22.501Z" fill="#EACA05"/>
<path d="M22.5227 45.018C19.436 39.669 6.73926 17.7461 6.73926 17.7461L23.0168 33.8477C23.0168 33.8477 21.3471 37.2856 21.9735 42.2061L22.5224 45.018H22.5227Z" fill="#DF3A32"/>
<defs>
<linearGradient id="paint0_linear_525_24818" x1="39.6558" y1="25.6544" x2="39.6558" y2="54.1656" gradientUnits="userSpaceOnUse">
<stop stop-color="#86BBE5"/>
<stop offset="1" stop-color="#1072BA"/>
</linearGradient>
</defs>
</svg>
