<svg width="172" height="173" viewBox="0 0 172 173" fill="none" xmlns="http://www.w3.org/2000/svg">
<path d="M86 172.102C133.496 172.102 172 133.598 172 86.1016C172 38.6051 133.496 0.101562 86 0.101562C38.5035 0.101562 0 38.6051 0 86.1016C0 133.598 38.5035 172.102 86 172.102Z" fill="url(#paint0_radial_525_24550)"/>
<g filter="url(#filter0_b_525_24550)">
<path d="M116.908 0H55.0909C37.5758 0 23.377 14.1988 23.377 31.714V93.5314C23.377 111.047 37.5758 125.245 55.0909 125.245H116.908C134.424 125.245 148.622 111.047 148.622 93.5314V31.714C148.622 14.1988 134.424 0 116.908 0Z" fill="#F9F9F9"/>
</g>
<path d="M116.908 1.55608C124.929 1.55608 132.492 4.70252 138.205 10.416C143.919 16.1295 147.066 23.6935 147.066 31.714V93.5314C147.066 101.552 143.92 109.116 138.205 114.828C132.49 120.54 124.929 123.689 116.908 123.689H55.0909C47.0705 123.689 39.5065 120.543 33.793 114.828C28.0795 109.113 24.933 101.552 24.933 93.5314V31.714C24.933 23.6935 28.0795 16.1295 33.793 10.416C39.5065 4.70252 47.0705 1.55608 55.0909 1.55608H116.908ZM116.908 0H55.0909C37.6477 0 23.377 14.2707 23.377 31.714V93.5314C23.377 110.975 37.6477 125.245 55.0909 125.245H116.908C134.352 125.245 148.622 110.975 148.622 93.5314V31.714C148.622 14.2707 134.352 0 116.908 0Z" fill="white"/>
<path d="M94.3237 60.6995V70.4936H109.202L106.804 86.7851H94.3237V125.245H77.0413V86.7851H62.7954L63.0768 70.4936H77.0401V56.4038C77.0401 45.9558 86.4416 33.6302 109.202 38.756V52.4379L102.297 52.5656C97.5305 52.6567 94.3237 55.9261 94.3237 60.6995Z" fill="url(#paint1_linear_525_24550)"/>
<defs>
<filter id="filter0_b_525_24550" x="19.377" y="-4" width="133.245" height="133.246" filterUnits="userSpaceOnUse" color-interpolation-filters="sRGB">
<feFlood flood-opacity="0" result="BackgroundImageFix"/>
<feGaussianBlur in="BackgroundImage" stdDeviation="2"/>
<feComposite in2="SourceAlpha" operator="in" result="effect1_backgroundBlur_525_24550"/>
<feBlend mode="normal" in="SourceGraphic" in2="effect1_backgroundBlur_525_24550" result="shape"/>
</filter>
<radialGradient id="paint0_radial_525_24550" cx="0" cy="0" r="1" gradientUnits="userSpaceOnUse" gradientTransform="translate(86 86.1016) scale(86)">
<stop stop-color="#0FBFFF"/>
<stop offset="1" stop-color="#F5F8FF" stop-opacity="0"/>
</radialGradient>
<linearGradient id="paint1_linear_525_24550" x1="85.3727" y1="20.3728" x2="89.4178" y2="293.9" gradientUnits="userSpaceOnUse">
<stop stop-color="#0FACFF"/>
<stop offset="1" stop-color="#005FDD"/>
</linearGradient>
</defs>
</svg>
