<svg width="80" height="80" viewBox="0 0 80 80" fill="none" xmlns="http://www.w3.org/2000/svg">
<path d="M72.1651 59.5128C71.103 60.0752 70.0095 60.575 68.8849 60.9811C65.2922 62.3245 61.5122 63.0117 57.6696 63.0117C42.8929 63.0117 30.0218 52.8586 30.0218 39.8001C30.053 36.2387 32.0212 32.9585 35.1452 31.2715C21.7743 31.8338 18.3379 45.767 18.3379 53.9208C18.3379 77.0075 39.6126 79.3505 44.205 79.3505C46.673 79.3505 50.3906 78.632 52.6399 77.9134L53.046 77.7885C61.6684 74.8206 68.9786 69.0099 73.8521 61.2935C74.227 60.7 74.0396 59.9502 73.4772 59.5753C73.0711 59.3254 72.5713 59.2941 72.1651 59.5128Z" fill="url(#paint0_linear_525_24807)"/>
<path opacity="0.35" d="M72.1651 59.5128C71.103 60.0752 70.0095 60.575 68.8849 60.9811C65.2922 62.3245 61.5122 63.0117 57.6696 63.0117C42.8929 63.0117 30.0218 52.8586 30.0218 39.8001C30.053 36.2387 32.0212 32.9585 35.1452 31.2715C21.7743 31.8338 18.3379 45.767 18.3379 53.9208C18.3379 77.0075 39.6126 79.3505 44.205 79.3505C46.673 79.3505 50.3906 78.632 52.6399 77.9134L53.046 77.7885C61.6684 74.8206 68.9786 69.0099 73.8521 61.2935C74.227 60.7 74.0396 59.9502 73.4772 59.5753C73.0711 59.3254 72.5713 59.2941 72.1651 59.5128Z" fill="url(#paint1_radial_525_24807)"/>
<path d="M33.0213 75.4151C30.2409 73.6969 27.8354 71.4163 25.9297 68.7609C17.7135 57.5143 20.1815 41.7379 31.428 33.5217C32.6152 32.6782 33.8336 31.8972 35.1457 31.2724C36.1141 30.8038 37.7699 29.9915 39.9879 30.0228C43.1432 30.054 46.111 31.5535 48.0167 34.084C49.2663 35.771 49.9849 37.8016 50.0161 39.926C50.0161 39.8635 57.67 15.0586 25.0238 15.0586C11.3092 15.0586 0.0314287 28.0858 0.0314287 39.4886C-0.0310521 45.518 1.28105 51.5162 3.81152 56.9832C12.4339 75.3526 33.4274 84.3498 52.6715 77.9456C46.0798 80.0074 38.8945 79.1014 33.0213 75.4151Z" fill="url(#paint2_linear_525_24807)"/>
<path opacity="0.41" d="M33.0213 75.4151C30.2409 73.6969 27.8354 71.4163 25.9297 68.7609C17.7135 57.5143 20.1815 41.7379 31.428 33.5217C32.6152 32.6782 33.8336 31.8972 35.1457 31.2724C36.1141 30.8038 37.7699 29.9915 39.9879 30.0228C43.1432 30.054 46.111 31.5535 48.0167 34.084C49.2663 35.771 49.9849 37.8016 50.0161 39.926C50.0161 39.8635 57.67 15.0586 25.0238 15.0586C11.3092 15.0586 0.0314287 28.0858 0.0314287 39.4886C-0.0310521 45.518 1.28105 51.5162 3.81152 56.9832C12.4339 75.3526 33.4274 84.3498 52.6715 77.9456C46.0798 80.0074 38.8945 79.1014 33.0213 75.4151Z" fill="url(#paint3_radial_525_24807)"/>
<path d="M47.5792 46.517C47.3292 46.8294 46.5482 47.298 46.5482 48.2977C46.5482 49.1099 47.0793 49.891 48.0165 50.547C52.5151 53.671 60.9813 53.2649 61.0125 53.2649C64.3553 53.2649 67.6043 52.3589 70.4784 50.672C76.3516 47.2355 79.9755 40.9562 79.9755 34.1458C80.0692 27.1479 77.4762 22.4931 76.4453 20.4312C69.8223 7.46646 55.5142 0 39.9877 0C18.1194 0 0.312404 17.5571 0 39.4254C0.156202 28.0227 11.4965 18.8067 24.9923 18.8067C26.0858 18.8067 32.3338 18.9005 38.1133 21.962C43.2055 24.6487 45.8922 27.8665 47.7354 31.0842C49.6723 34.4269 50.0159 38.6132 50.0159 40.3001C50.0159 41.9559 49.1724 44.4551 47.5792 46.517Z" fill="url(#paint4_radial_525_24807)"/>
<path d="M47.5792 46.517C47.3292 46.8294 46.5482 47.298 46.5482 48.2977C46.5482 49.1099 47.0793 49.891 48.0165 50.547C52.5151 53.671 60.9813 53.2649 61.0125 53.2649C64.3553 53.2649 67.6043 52.3589 70.4784 50.672C76.3516 47.2355 79.9755 40.9562 79.9755 34.1458C80.0692 27.1479 77.4762 22.4931 76.4453 20.4312C69.8223 7.46646 55.5142 0 39.9877 0C18.1194 0 0.312404 17.5571 0 39.4254C0.156202 28.0227 11.4965 18.8067 24.9923 18.8067C26.0858 18.8067 32.3338 18.9005 38.1133 21.962C43.2055 24.6487 45.8922 27.8665 47.7354 31.0842C49.6723 34.4269 50.0159 38.6132 50.0159 40.3001C50.0159 41.9559 49.1724 44.4551 47.5792 46.517Z" fill="url(#paint5_radial_525_24807)"/>
<defs>
<linearGradient id="paint0_linear_525_24807" x1="18.3391" y1="55.3016" x2="74.0355" y2="55.3016" gradientUnits="userSpaceOnUse">
<stop stop-color="#0C59A4"/>
<stop offset="1" stop-color="#114A8B"/>
</linearGradient>
<radialGradient id="paint1_radial_525_24807" cx="0" cy="0" r="1" gradientUnits="userSpaceOnUse" gradientTransform="translate(49.1071 55.7441) scale(29.7941 28.3013)">
<stop offset="0.72" stop-opacity="0"/>
<stop offset="0.95" stop-opacity="0.53"/>
<stop offset="1"/>
</radialGradient>
<linearGradient id="paint2_linear_525_24807" x1="47.7265" y1="31.1618" x2="12.9331" y2="69.0602" gradientUnits="userSpaceOnUse">
<stop stop-color="#1B9DE2"/>
<stop offset="0.16" stop-color="#1595DF"/>
<stop offset="0.67" stop-color="#0680D7"/>
<stop offset="1" stop-color="#0078D4"/>
</linearGradient>
<radialGradient id="paint3_radial_525_24807" cx="0" cy="0" r="1" gradientUnits="userSpaceOnUse" gradientTransform="translate(22.0586 62.1722) rotate(-81.3826) scale(44.7981 36.1995)">
<stop offset="0.76" stop-opacity="0"/>
<stop offset="0.95" stop-opacity="0.5"/>
<stop offset="1"/>
</radialGradient>
<radialGradient id="paint4_radial_525_24807" cx="0" cy="0" r="1" gradientUnits="userSpaceOnUse" gradientTransform="translate(8.07615 14.8057) rotate(92.2911) scale(63.2779 134.789)">
<stop stop-color="#35C1F1"/>
<stop offset="0.11" stop-color="#34C1ED"/>
<stop offset="0.23" stop-color="#2FC2DF"/>
<stop offset="0.31" stop-color="#2BC3D2"/>
<stop offset="0.67" stop-color="#36C752"/>
</radialGradient>
<radialGradient id="paint5_radial_525_24807" cx="0" cy="0" r="1" gradientUnits="userSpaceOnUse" gradientTransform="translate(74.9959 24.1819) rotate(73.7366) scale(30.4036 24.729)">
<stop stop-color="#66EB6E"/>
<stop offset="1" stop-color="#66EB6E" stop-opacity="0"/>
</radialGradient>
</defs>
</svg>
