<svg width="20" height="20" viewBox="0 0 20 20" fill="none" xmlns="http://www.w3.org/2000/svg">
<path d="M10.612 9.94986L3.07996 11.2049C2.99336 11.2193 2.9121 11.2563 2.84434 11.3121C2.77658 11.368 2.72471 11.4406 2.69395 11.5229L0.0969551 18.4809C-0.151045 19.1209 0.517955 19.7309 1.13195 19.4229L19.132 10.4229C19.2564 10.3605 19.361 10.2648 19.4341 10.1464C19.5072 10.0279 19.5459 9.89152 19.5459 9.75236C19.5459 9.6132 19.5072 9.47678 19.4341 9.35836C19.361 9.23995 19.2564 9.14421 19.132 9.08186L1.13195 0.0818581C0.517955 -0.225142 -0.151045 0.384858 0.0969549 1.02386L2.69495 7.98186C2.72571 8.06409 2.77758 8.13676 2.84534 8.19259C2.9131 8.24841 2.99436 8.28541 3.08095 8.29986L10.613 9.55486C10.6599 9.56236 10.7027 9.58636 10.7336 9.62256C10.7645 9.65876 10.7814 9.70478 10.7814 9.75236C10.7814 9.79994 10.7645 9.84596 10.7336 9.88216C10.7027 9.91835 10.6589 9.94236 10.612 9.94986Z" fill="white"/>
</svg>
