<svg width="100" height="101" viewBox="0 0 100 101" fill="none" xmlns="http://www.w3.org/2000/svg">
<circle cx="50" cy="50.1016" r="50" fill="#00778B"/>
<path fill-rule="evenodd" clip-rule="evenodd" d="M48.2849 25.2295C47.2361 25.4016 45.8631 25.8888 44.8337 26.454C43.512 27.1797 41.7045 28.9292 40.9907 30.1737C38.631 34.2875 39.3032 39.2458 42.668 42.5463C44.6661 44.5063 47.157 45.5147 50 45.5147C52.843 45.5147 55.3339 44.5063 57.332 42.5463C60.6968 39.2458 61.369 34.2875 59.0093 30.1737C58.2955 28.9292 56.488 27.1797 55.1663 26.454C53.0762 25.3063 50.5532 24.8574 48.2849 25.2295ZM29.7123 34.896C27.3917 35.4923 25.3969 37.2053 24.4844 39.3855C24.0495 40.4242 23.917 41.1153 23.9184 42.3373C23.92 43.5717 24.1473 44.5401 24.6994 45.6624C25.664 47.6237 27.605 49.1618 29.8043 49.7078C30.8001 49.955 32.5659 49.9492 33.5616 49.6955C35.2987 49.2528 37.1337 47.9852 38.1285 46.5407C39.7141 44.2384 39.8693 41.1821 38.5287 38.66C37.931 37.5353 36.5047 36.1363 35.3581 35.55C33.6482 34.6756 31.5263 34.4298 29.7123 34.896ZM66.3463 34.896C64.357 35.4072 62.3949 36.9221 61.4713 38.66C60.3986 40.6782 60.2672 43.0363 61.1114 45.1186C61.9959 47.3002 64.086 49.0961 66.4384 49.6955C67.4341 49.9492 69.1999 49.955 70.1957 49.7078C72.9681 49.0196 75.1757 46.8539 75.8888 44.1225C76.109 43.2787 76.1429 41.5588 75.9559 40.71C75.3403 37.9151 73.0661 35.5991 70.2416 34.8906C69.0688 34.5965 67.5034 34.5985 66.3463 34.896ZM42.8963 47.8479C41.1138 48.2453 39.9369 48.8899 38.5999 50.2012C37.4871 51.2928 36.8865 52.2309 36.3934 53.6477L36.0861 54.5307L36.055 64.2051C36.0245 73.7148 36.0279 73.886 36.2594 74.2549C36.3889 74.4614 36.6671 74.7332 36.8776 74.8591C37.2532 75.0838 37.4944 75.0881 50 75.0881C62.5056 75.0881 62.7468 75.0838 63.1224 74.8591C63.3329 74.7332 63.6111 74.4614 63.7406 74.2549C63.9721 73.886 63.9755 73.7148 63.945 64.2051L63.9139 54.5307L63.6066 53.6477C63.1135 52.2309 62.5129 51.2928 61.4001 50.2012C60.2867 49.1092 59.3295 48.5197 57.8865 48.0376L56.9863 47.7369L50.2935 47.7139C44.9979 47.6958 43.4537 47.7238 42.8963 47.8479ZM27.4743 52.1784C24.1153 52.6058 21.333 54.9617 20.2757 58.2738C20.0012 59.1339 20 59.1634 20 65.1265V71.1155L20.2722 71.7765C20.8233 73.1152 21.9558 74.2256 23.3182 74.7633C23.9741 75.0222 24.1105 75.0304 28.4183 75.0655L32.8445 75.1016L32.7078 74.7209C32.524 74.209 32.4398 56.6196 32.6136 55.049C32.6802 54.4472 32.8214 53.6439 32.9275 53.2638C33.0335 52.8837 33.1465 52.4562 33.1785 52.3136L33.2368 52.0545L30.728 52.0691C29.3481 52.0772 27.884 52.1263 27.4743 52.1784ZM66.8215 52.3136C66.8535 52.4562 66.9665 52.8837 67.0725 53.2638C67.1786 53.6439 67.3198 54.4472 67.3864 55.049C67.5602 56.6196 67.476 74.209 67.2922 74.7209L67.1555 75.1016L71.5817 75.0655C75.8895 75.0304 76.0259 75.0222 76.6818 74.7633C78.0442 74.2256 79.1767 73.1152 79.7278 71.7765L80 71.1155V65.1265C80 59.1501 79.9994 59.1357 79.7224 58.2738C78.8323 55.5046 76.8481 53.4603 74.1893 52.5732C72.9989 52.1761 71.8056 52.0545 69.099 52.0545H66.7632L66.8215 52.3136Z" fill="white"/>
</svg>
