<svg width="100" height="101" viewBox="0 0 100 101" fill="none" xmlns="http://www.w3.org/2000/svg">
<circle cx="50" cy="50.1016" r="50" fill="#00778B"/>
<path fill-rule="evenodd" clip-rule="evenodd" d="M23.808 20.2579C22.0761 20.6875 20.6314 22.1262 20.1629 23.8879C20.0294 24.3899 20.002 28.4011 20.0008 47.6091C19.9993 72.9061 19.96 71.4356 20.6699 72.6486C21.0958 73.3765 21.9703 74.2214 22.6501 74.5621C22.9648 74.7198 26.7553 76.0306 31.0737 77.4751L38.9254 80.1016L39.9801 80.1013C41.2716 80.1011 41.9943 79.8724 42.9656 79.1567C43.7561 78.574 44.3807 77.7124 44.7264 76.7278C44.9192 76.1786 44.9606 75.7595 44.9606 74.3566V72.6525L49.0915 72.6505C53.8113 72.6481 54.2802 72.5903 55.8591 71.8166C57.7553 70.8873 59.2968 68.955 59.7783 66.9037C60.0463 65.7619 60.0472 54.7847 59.7793 54.1429C58.9949 52.2632 56.2828 52.1405 55.2913 53.9397C55.1207 54.2494 55.0904 54.9831 55.0388 60.0404L54.9802 65.7892L54.6872 66.312C54.5261 66.5994 54.1656 66.9954 53.8863 67.1919L53.3784 67.549L49.1708 67.5826L44.9633 67.6161L44.9327 48.2246L44.902 28.833L44.5311 28.0493C43.9201 26.758 43.0982 25.9946 41.692 25.4119L41.0348 25.1396L47.2065 25.1679L53.3782 25.196L53.8863 25.5532C54.1656 25.7497 54.5261 26.1456 54.6872 26.4331L54.9802 26.9558L55.0388 31.4923L55.0974 36.0287L55.449 36.5281C55.9764 37.2773 56.6684 37.6015 57.6312 37.5501C58.524 37.5026 59.1147 37.171 59.6092 36.4402L59.9021 36.0071L59.9353 31.3404C59.9726 26.0928 59.9374 25.7666 59.1676 24.1988C58.5349 22.9104 57.1892 21.5803 55.8591 20.9285C54.0777 20.0555 54.9107 20.0957 38.8082 20.1045C27.7613 20.1106 24.2571 20.1465 23.808 20.2579ZM66.4636 32.8647C65.8729 33.1334 65.284 33.7965 65.1241 34.3733C65.0498 34.6413 65.0009 36.3573 65.0005 38.7173L64.9998 42.6182H59.7493H54.4989L53.882 42.926C52.8271 43.4523 52.3126 44.562 52.589 45.7153C52.7784 46.5053 53.5857 47.3296 54.3616 47.5252C54.7381 47.6201 56.4782 47.6631 59.954 47.6631H64.9998V51.5504C64.9998 54.2863 65.0425 55.5807 65.144 55.9206C65.4283 56.8731 66.5241 57.6397 67.5916 57.6328C68.5236 57.6267 68.843 57.3541 74.2316 51.9689C79.6327 46.571 80 46.1413 80 45.2192C80 44.1124 80.0654 44.1909 74.3846 38.4793C70.8644 34.9398 68.8804 33.0296 68.5663 32.8772C67.968 32.5868 67.0863 32.5815 66.4636 32.8647Z" fill="white"/>
</svg>
