<svg width="100" height="100" viewBox="0 0 100 100" fill="none" xmlns="http://www.w3.org/2000/svg">
<circle cx="50" cy="50" r="50" fill="#00778B"/>
<path fill-rule="evenodd" clip-rule="evenodd" d="M51.6818 20.0711C51.1225 20.2543 50.6819 20.5375 50.2585 20.9859C49.8504 21.4178 30.6753 49.7605 30.2211 50.603C30.0603 50.9013 29.9998 51.2549 30 51.8941C30.0005 52.9126 30.2263 53.4458 30.9547 54.1478C31.867 55.027 31.6494 55.0004 38.2533 55.0389L44.1606 55.0734L44.0983 55.5084C44.0641 55.7477 43.5364 60.6971 42.9258 66.5071C41.7638 77.5623 41.7645 77.5497 42.2136 78.4035C42.4308 78.8164 43.1786 79.5163 43.6892 79.7844C43.9829 79.9386 44.3529 80.0002 44.9823 80C46.0047 79.9995 46.5441 79.7709 47.2313 79.0467C47.721 78.5306 69.632 47.2933 69.8171 46.8472C69.8843 46.6857 69.9627 46.2063 69.9916 45.7819C70.0574 44.8141 69.7365 43.9911 69.0525 43.3741C68.1148 42.5283 68.5167 42.5693 60.5522 42.5042L53.3766 42.4455L54.5248 32.8209C55.2194 26.9989 55.6457 23.0108 55.6041 22.7268C55.4511 21.6833 54.8042 20.7811 53.8605 20.295C53.3539 20.0341 52.167 19.9121 51.6818 20.0711Z" fill="white"/>
</svg>
