<svg width="333" height="331" viewBox="0 0 333 331" fill="none" xmlns="http://www.w3.org/2000/svg">
<path d="M3.93492 135.154L74.1165 13.3451C78.6963 5.39619 87.1598 0.5 96.3185 0.5H236.682C245.84 0.5 254.304 5.39619 258.884 13.3451L329.065 135.154C333.645 143.103 333.645 152.897 329.065 160.846L258.884 282.655C254.304 290.604 245.84 295.5 236.682 295.5H96.3185C87.1598 295.5 78.6963 290.604 74.1165 282.655L3.93492 160.846C-0.644973 152.897 -0.644973 143.103 3.93492 135.154Z" fill="white" stroke="#E5E7EB"/>
<path d="M167 331C233.826 331 288 276.826 288 210C288 143.174 233.826 89 167 89C100.174 89 46 143.174 46 210C46 276.826 100.174 331 167 331Z" fill="url(#paint0_radial_901_21913)"/>
<path d="M21.0811 159.503C16.973 152.385 16.973 143.615 21.0811 136.497L82.8324 29.5028C86.9405 22.3848 94.5325 18 102.749 18H230.251C238.467 18 246.06 22.3848 250.168 29.5028L311.919 136.497C316.027 143.615 316.027 152.385 311.919 159.503L250.168 266.497C246.06 273.615 238.467 278 230.251 278H102.749C94.5325 278 86.9405 273.615 82.8324 266.497L21.0811 159.503Z" fill="#F9F9F9"/>
<defs>
<radialGradient id="paint0_radial_901_21913" cx="0" cy="0" r="1" gradientUnits="userSpaceOnUse" gradientTransform="translate(167 210) scale(121)">
<stop stop-color="#00778B"/>
<stop offset="1" stop-color="#F5F8FF" stop-opacity="0"/>
</radialGradient>
</defs>
</svg>
