<svg width="100" height="100" viewBox="0 0 100 100" fill="none" xmlns="http://www.w3.org/2000/svg">
<circle cx="50" cy="50" r="50" fill="#00778B"/>
<path fill-rule="evenodd" clip-rule="evenodd" d="M22.6818 27.1529C21.6392 27.4335 20.7778 28.1644 20.3198 29.1572L20.0501 29.7419L20.0251 46.2901L20 62.8383L20.2328 62.4001C20.3608 62.159 22.1453 58.4489 24.1981 54.1552C26.251 49.8616 28.1356 45.93 28.3861 45.4184C29.2325 43.69 30.6195 42.6678 32.4383 42.4322C32.9477 42.3662 40.855 42.3196 51.9107 42.3175L70.5252 42.3138L70.4901 39.4778C70.4566 36.7705 70.4426 36.618 70.1814 36.1156C69.7963 35.3749 69.0574 34.6554 68.3566 34.3389L67.7589 34.069L56.3299 34.0343L44.9009 33.9995L42.7793 31.0521C41.2728 28.9592 40.5057 27.9955 40.1333 27.7284C39.1172 26.9997 39.0281 26.9928 30.7218 27.0014C25.1812 27.0073 23.0753 27.0469 22.6818 27.1529ZM34.5211 45.828C33.0523 46.047 31.8006 46.8003 31.0331 47.9274C30.8359 48.2168 28.2931 53.4398 25.3824 59.5341C20.3371 70.098 20.0962 70.6324 20.217 70.9951C20.469 71.7516 21.1823 72.5202 22.0354 72.9543L22.8397 73.3636H45.0709H67.3022L68.1954 72.9232C69.7724 72.1456 69.6214 72.3953 74.9663 61.7263C77.9995 55.6718 79.7914 51.9663 79.8757 51.5741C80.0672 50.6835 80.0402 50.0426 79.7753 49.1869C79.315 47.7001 78.1397 46.5319 76.5406 45.9718C76.0042 45.7838 74.5548 45.7685 55.5679 45.7505C44.3499 45.7397 34.8788 45.7747 34.5211 45.828Z" fill="white"/>
</svg>
