<svg width="31" height="30" viewBox="0 0 31 30" fill="none" xmlns="http://www.w3.org/2000/svg">
<path d="M28.3379 20.2375C28.3379 24.7875 25.6254 27.5 21.0754 27.5H19.5879C18.9004 27.5 18.3379 26.9375 18.3379 26.25V19.0375C18.3379 18.7 18.6129 18.4125 18.9504 18.4125L21.1504 18.375C21.3254 18.3625 21.4754 18.2375 21.5129 18.0625L21.9504 15.675C21.9879 15.45 21.8129 15.2375 21.5754 15.2375L18.9129 15.275C18.5629 15.275 18.2879 15 18.2754 14.6625L18.2254 11.6C18.2254 11.4 18.3879 11.225 18.6004 11.225L21.6004 11.175C21.8129 11.175 21.9754 11.0125 21.9754 10.8L21.9254 7.79999C21.9254 7.58749 21.7629 7.425 21.5504 7.425L18.1754 7.47501C16.1004 7.51251 14.4504 9.2125 14.4879 11.2875L14.5504 14.725C14.5629 15.075 14.2879 15.35 13.9379 15.3625L12.4379 15.3875C12.2254 15.3875 12.0629 15.55 12.0629 15.7625L12.1004 18.1375C12.1004 18.35 12.2629 18.5125 12.4754 18.5125L13.9754 18.4875C14.3254 18.4875 14.6004 18.7625 14.6129 19.1L14.7254 26.225C14.7379 26.925 14.1754 27.5 13.4754 27.5H10.6004C6.05039 27.5 3.33789 24.7875 3.33789 20.225V9.7625C3.33789 5.2125 6.05039 2.5 10.6004 2.5H21.0754C25.6254 2.5 28.3379 5.2125 28.3379 9.7625V20.2375V20.2375Z" fill="white"/>
</svg>
