<svg width="740" height="420" viewBox="0 0 740 420" fill="none" xmlns="http://www.w3.org/2000/svg">
<g clip-path="url(#clip0_506_18734)">
<path d="M199.464 188.627H149.796C133.241 188.627 117.365 196.331 105.66 210.044C93.954 223.757 87.3778 242.356 87.3778 261.749V417.999M412.037 309.61C409.345 308.18 406.492 306.826 403.48 305.546C393.306 288.855 376.958 242.613 359.869 214.65C359.672 200.645 361.215 174.632 340.294 158.688" stroke="#030229" stroke-width="3.16921" stroke-linecap="round" stroke-linejoin="round"/>
<path d="M261.447 146.738C201.699 158.362 192.608 186.057 203.108 211.501C184.373 223.314 153.507 248.627 126.55 298.134C84.3667 375.525 125.096 418.281 149.06 418.281C173.024 418.281 446.103 415.926 446.103 415.926C446.103 415.926 459.117 383.6 448.997 352.078" stroke="#030229" stroke-width="3.16921" stroke-linecap="round" stroke-linejoin="round"/>
<path d="M255.663 182.619L249.712 187.682C249.712 187.682 289.338 236.016 307.104 334.409C309.123 345.586 310.55 354.076 311.556 360.537C311.515 360.595 323.582 362.036 323.286 361.894C319.799 334.835 314.926 285.507 321.94 261.65C331.867 227.789 332.127 208.2 325.395 183.455C323.78 177.514 321.523 221.88 309.586 237.688C279.465 198.469 255.663 182.619 255.663 182.619Z" fill="#00778B"/>
<path d="M266.253 162.705L265.827 171.264L256.69 183.576C256.69 183.576 283.746 203.169 309.644 237.725C309.644 237.725 320.58 224.33 324.296 183.276" stroke="#030229" stroke-width="3.16921" stroke-linecap="round" stroke-linejoin="round"/>
<path d="M276.144 255.631C276.144 255.631 291.034 291.937 293.08 316.614" stroke="#030229" stroke-width="4.22562" stroke-linecap="round" stroke-linejoin="round"/>
<path d="M332.688 254.332C332.688 254.332 325.844 289.077 328.092 313.706" stroke="#030229" stroke-width="4.22562" stroke-linecap="round" stroke-linejoin="round"/>
<path d="M372.955 390.609C377.851 396.024 380.557 399.425 380.889 400.966C381.688 404.646 375.289 406.749 370.002 401.018L354.439 385.247C354.439 385.247 370.298 404.43 371.524 407.364C372.749 410.297 366.56 415.491 357.397 403.158C348.233 390.825 346.774 390.709 346.774 390.709C346.774 390.709 357.248 406.233 358.644 409.75C360.04 413.267 351.204 416.585 343.104 400.287L294.673 398.027L297.528 357.137C297.528 357.137 321.662 361.437 338.226 365.48L342.296 366.416C344.711 366.654 347.088 367.279 349.359 368.271C355.193 370.726 381.275 384.947 383.263 387.854C385.251 390.762 382.787 396.35 376.415 392.67C370.043 388.99 356.845 380.699 356.845 380.699" stroke="#030229" stroke-width="3.16921" stroke-linecap="round" stroke-linejoin="round"/>
<path d="M241.433 417.668C260.729 417.862 283.167 413.641 287.682 412.936C296.594 411.564 294.153 403.699 300.696 401.765C307.239 399.83 309.482 397.843 309.482 397.843C302.935 381.546 313.642 357.552 313.642 357.552C313.642 357.552 311.587 356.569 305.179 354.056C298.771 351.543 301.719 343.92 292.923 341.754C284.128 339.588 212.111 332.381 212.111 332.381" stroke="#030229" stroke-width="3.16921" stroke-linecap="round" stroke-linejoin="round"/>
<path d="M301.661 402.979C308.742 400.95 311.156 398.857 311.156 398.857C304.035 381.556 315.563 356.196 315.563 356.196C315.563 356.196 313.319 355.144 306.4 352.463C303.608 351.385 302.45 349.43 301.463 347.332C284.904 364.618 290.136 399.835 292.753 412.71C296.518 409.682 296.289 404.519 301.661 402.979Z" fill="#00778B"/>
<path d="M220.377 308.119C220.377 308.119 234.737 311.436 236.59 334.174" stroke="#030229" stroke-width="3.16921" stroke-linecap="round" stroke-linejoin="round"/>
<path d="M403.197 367.225C403.197 367.225 400.504 381.677 396.591 387.165C392.678 392.654 400.949 397.553 405.176 394.162C405.761 393.724 406.323 393.244 406.859 392.727" stroke="#030229" stroke-width="3.16921" stroke-linecap="round" stroke-linejoin="round"/>
<path d="M418.526 345.49C411.171 345.953 404.826 350.164 404.494 361.861C404.494 361.861 406.823 388.757 407.271 396.558C407.72 404.36 414.402 402.746 415.722 399.508" stroke="#030229" stroke-width="3.16921" stroke-linecap="round" stroke-linejoin="round"/>
<path d="M414.945 372.344C414.945 372.344 415.309 388.757 415.753 396.527C416.197 404.297 422.574 404.891 423.831 400.806C425.087 396.721 423.938 372.333 423.938 372.333C423.938 372.333 424.297 388.746 424.746 396.516C425.195 404.286 431.19 404.071 432.51 400.832C433.443 398.546 432.51 372.323 432.51 372.323C432.51 372.323 432.873 388.736 433.322 396.506C433.771 404.276 439.762 404.06 441.085 400.822C442.409 397.583 446.134 359.916 441.489 354.948C440.735 352.23 434.457 348.229 427.282 346.395" stroke="#030229" stroke-width="3.16921" stroke-linecap="round" stroke-linejoin="round"/>
<path d="M429.283 347C435.593 349.003 440.812 352.52 441.494 354.98C444.572 358.277 443.971 375.941 442.84 388.416C445.95 384.167 448.114 379.083 449.138 373.616C450.163 368.15 450.017 362.471 448.712 357.087C447.408 351.703 444.987 346.781 441.664 342.759C438.341 338.738 434.22 335.743 429.669 334.041" fill="#00778B"/>
<path d="M418.244 332.574C413.166 333.111 408.3 335.209 404.136 338.657C399.973 342.104 396.661 346.778 394.535 352.207C392.409 357.635 391.544 363.625 392.028 369.57C392.512 375.516 394.327 381.206 397.291 386.066C400.823 379.962 403.197 367.224 403.197 367.224L405.194 370.063C404.794 365.295 404.494 361.862 404.494 361.862C404.821 350.27 411.059 346.033 418.329 345.502" fill="#00778B"/>
<path d="M366.672 336.538C366.672 336.538 367.301 306.84 395.249 307.765M409.506 316.066C409.506 316.066 374.019 316.766 373.224 359.359L409.506 316.066Z" stroke="#030229" stroke-width="3.16921" stroke-linecap="round" stroke-linejoin="round"/>
<path d="M358.393 212.758C358.393 213.378 358.393 213.972 358.428 214.545C354.017 242.797 350.113 239.328 339.765 261.649C339.688 261.812 339.616 261.986 339.545 262.175C353.717 255.677 364.855 247.213 371.236 232.735C371.236 232.709 362.916 218.945 358.393 212.758Z" fill="#00778B"/>
<path d="M204.185 210.477C195.8 215.858 187.814 222.053 180.311 228.998C187.9 234.097 244.269 270.971 270.418 263.043C252.122 263.032 215.14 237.73 204.185 210.477Z" fill="#00778B"/>
<path d="M269.982 97.7156L261.308 97.1951V96.9849C261.308 96.9849 263.265 40.4125 313.404 42.1894C318.076 42.3314 349.987 44.2187 350.571 74.9258C350.966 95.5707 347.963 117.204 344.62 133.69M257.467 105.943C253.01 106.096 242.514 107.988 243.586 122.503C244.538 135.388 254.621 135.346 260.563 134.169" stroke="#030229" stroke-width="3.16921" stroke-linecap="round" stroke-linejoin="round"/>
<path d="M269.982 97.7157L256.713 96.9219C256.713 96.9219 260.339 137.292 262.125 148.227C263.911 159.161 265.454 164.135 276.579 175.59C287.704 187.045 312.992 195.021 326.724 180.164C340.456 165.307 344.773 133.764 344.773 133.764" stroke="#030229" stroke-width="3.16921" stroke-linecap="round" stroke-linejoin="round"/>
<path d="M256.91 102.584C256.91 102.584 251.426 86.3134 250.919 70.6208C250.439 55.864 258.548 42.4214 270.75 38.7203C280.964 35.6239 287.161 41.3857 287.161 41.3857C287.161 41.3857 280.645 19.3582 298.447 5.42673C301.562 2.99222 305.068 1.32769 308.751 0.53494C312.434 -0.257805 316.216 -0.162101 319.867 0.816199C337.866 5.68433 340.393 24.9255 340.393 24.9255C340.393 24.9255 366.906 -12.2426 402.42 21.7713C406.01 25.2042 409.327 33.2003 410.691 38.3839C418.975 69.7849 369.989 93.2056 347.021 90.577C321.801 87.6961 308.145 79.5054 301.396 70.5525C306.606 76.0988 292.542 117.877 256.91 102.584Z" fill="#030229"/>
<path d="M325.193 116.385L325.265 144.384L317.188 140.804" stroke="#030229" stroke-width="4.22562" stroke-linecap="round" stroke-linejoin="round"/>
<path d="M336.792 117.44C337.022 115.019 336.127 112.915 334.792 112.74C333.457 112.566 332.188 114.387 331.957 116.808C331.727 119.229 332.622 121.333 333.957 121.508C335.292 121.682 336.561 119.861 336.792 117.44Z" fill="#030229"/>
<path d="M313.649 114.034C313.88 111.613 312.985 109.509 311.65 109.334C310.315 109.16 309.046 110.981 308.815 113.402C308.584 115.823 309.479 117.927 310.814 118.101C312.149 118.276 313.419 116.455 313.649 114.034Z" fill="#030229"/>
<path d="M300.956 97.6961C302.35 96.0236 304.102 94.8203 306.029 94.2118C307.956 93.6033 309.987 93.612 311.91 94.2369" stroke="#030229" stroke-width="4.22562" stroke-linecap="round" stroke-linejoin="round"/>
<path d="M305.578 149.973C305.578 149.973 307.593 158.179 314.019 155.876M332.163 96.0078C332.163 96.0078 339.06 94.8459 340.124 101.486L332.163 96.0078Z" stroke="#030229" stroke-width="4.22562" stroke-linecap="round" stroke-linejoin="round"/>
<path d="M296.733 398.143H455.24C456.549 398.143 457.804 398.752 458.73 399.836C459.656 400.921 460.176 402.392 460.176 403.925V418.12H291.658V404.094C291.657 403.312 291.788 402.539 292.043 401.817C292.298 401.095 292.671 400.439 293.143 399.886C293.614 399.333 294.174 398.895 294.79 398.596C295.406 398.297 296.066 398.143 296.733 398.143Z" fill="#030229"/>
<path d="M1.34607 418.424H738.654" stroke="#030229" stroke-width="3.16921" stroke-linecap="round" stroke-linejoin="round"/>
<path d="M550.807 249.82C546.351 249.999 544.448 251.114 544.448 255.651C544.448 262.369 550.282 353.928 550.336 354.848C550.39 355.768 553.729 410.653 553.729 410.653C553.827 412.417 554.494 414.071 555.593 415.282C556.693 416.493 558.143 417.17 559.652 417.177L566.141 416.914L550.569 250.893C550.535 250.513 550.62 250.132 550.807 249.82Z" fill="#030229"/>
<path d="M625.804 408.424L614.675 354.239C614.675 354.239 597.572 260.819 596.383 254.352C595.486 249.511 591.514 249.71 591.061 249.784C590.706 249.842 590.491 249.784 590.096 249.784H552.988C553.129 250.006 553.217 250.267 553.244 250.541L568.847 416.893H620.006C620.893 416.885 621.768 416.646 622.566 416.192C623.365 415.739 624.067 415.083 624.622 414.272C625.177 413.461 625.571 412.516 625.776 411.504C625.98 410.493 625.99 409.441 625.804 408.424ZM595.804 328.216C594.423 329.851 592.774 331.145 590.957 332.019C589.14 332.893 587.191 333.331 585.227 333.305H585.11C576.952 333.236 570.014 325.908 569.642 316.971C569.553 314.922 569.826 312.874 570.444 310.954C571.062 309.035 572.011 307.285 573.232 305.815C574.612 304.176 576.26 302.88 578.077 302.004C579.895 301.128 581.844 300.69 583.809 300.715H583.926C592.084 300.784 599.022 308.112 599.39 317.049C599.479 319.099 599.207 321.149 598.59 323.07C597.973 324.991 597.025 326.743 595.804 328.216Z" fill="#030229"/>
<path d="M474.747 398.141H616.555V416.894H469.671V404.066C469.676 402.493 470.213 400.986 471.164 399.875C472.116 398.765 473.404 398.141 474.747 398.141ZM684.937 143.3C684.937 138.343 681.612 134.363 677.559 134.363L436.041 135.236C435.889 135.236 435.741 135.236 435.593 135.268L416.377 135.336C412.338 135.336 409.058 139.379 409.08 144.331L409.977 351.821C409.977 356.773 413.298 360.758 417.351 360.758L434.893 360.285C435.58 360.536 436.295 360.664 437.015 360.663L547.818 357.556C547.765 356.931 547.706 356.126 547.639 355.091C547.397 351.316 541.742 262.491 541.742 255.657C541.742 246.641 548.142 246.641 552.378 246.641H591.312C591.493 246.639 591.674 246.662 591.851 246.709C594.368 246.809 598.044 248.444 599.004 253.68C600.148 259.931 616.479 349.255 617.641 355.6L678.524 353.892C682.563 353.892 685.843 349.849 685.821 344.897L684.937 143.3ZM432.083 358.445C432.047 358.832 431.889 359.19 431.64 359.449C431.392 359.708 431.07 359.851 430.737 359.848H430.584C424.831 359.091 421.641 354.065 421.609 345.654C421.609 340.891 420.784 157.61 420.739 147.79C420.698 138.8 427.066 136.224 430.436 136.093C430.793 136.08 431.14 136.233 431.401 136.52C431.661 136.806 431.814 137.202 431.825 137.62C431.837 138.038 431.706 138.445 431.461 138.75C431.217 139.055 430.879 139.234 430.522 139.247C429.79 139.279 423.395 139.773 423.431 147.78C423.476 157.6 424.279 340.88 424.302 345.643C424.333 352.514 426.487 356.158 430.89 356.683C431.067 356.706 431.239 356.769 431.396 356.87C431.553 356.971 431.69 357.107 431.802 357.271C431.913 357.435 431.995 357.623 432.043 357.825C432.092 358.026 432.105 358.237 432.083 358.445Z" fill="#030229"/>
<path d="M543.739 58.2734H544.318C545.21 58.2734 546.062 59.1493 546.062 60.402V63.2724C546.062 64.5252 545.21 65.401 544.318 65.401H543.739C542.848 65.401 541.996 64.5252 541.996 63.2724V60.402C541.996 59.1493 542.848 58.2734 543.739 58.2734Z" fill="#00778B" stroke="#00778B"/>
<path d="M506.964 58.2734H537.309C538.2 58.2734 539.052 59.1493 539.052 60.402V63.2724C539.052 64.5252 538.2 65.401 537.309 65.401H506.964C506.072 65.401 505.22 64.5252 505.22 63.2724V60.402C505.22 59.1493 506.072 58.2734 506.964 58.2734Z" stroke="#030229"/>
<path d="M506.964 96.0312H540.459C541.351 96.0312 542.203 96.9071 542.203 98.1598V101.03C542.203 102.283 541.351 103.159 540.459 103.159H506.964C506.072 103.159 505.22 102.283 505.22 101.03V98.1598C505.22 96.9071 506.072 96.0312 506.964 96.0312Z" stroke="#030229"/>
<path d="M516.567 83.4609H570.992C571.884 83.4609 572.736 84.3368 572.736 85.5895V88.4599C572.736 89.7127 571.884 90.5885 570.992 90.5885H516.567C515.675 90.5885 514.823 89.7127 514.823 88.4599V85.5895C514.823 84.3368 515.675 83.4609 516.567 83.4609Z" fill="#00778B" stroke="#00778B"/>
<path d="M578.774 83.4609H606.108C607 83.4609 607.852 84.3368 607.852 85.5895V88.4599C607.852 89.7127 607 90.5885 606.108 90.5885H578.774C577.882 90.5885 577.03 89.7127 577.03 88.4599V85.5895C577.03 84.3368 577.882 83.4609 578.774 83.4609Z" fill="#00778B" stroke="#00778B"/>
<path d="M616.299 70.8906H616.878C617.77 70.8906 618.622 71.7665 618.622 73.0192V75.8896C618.622 77.1424 617.77 78.0182 616.878 78.0182H616.299C615.407 78.0182 614.555 77.1424 614.555 75.8896V73.0192C614.555 71.7665 615.407 70.8906 616.299 70.8906Z" stroke="#030229"/>
<path d="M506.964 70.8711H563.395C564.287 70.8711 565.139 71.7469 565.139 72.9997V75.8701C565.139 77.1228 564.287 77.9987 563.395 77.9987H506.964C506.072 77.9987 505.22 77.1228 505.22 75.8701V72.9997C505.22 71.7469 506.072 70.8711 506.964 70.8711Z" stroke="#030229"/>
<path d="M551.041 58.2734H581.386C582.278 58.2734 583.13 59.1493 583.13 60.402V63.2724C583.13 64.5252 582.278 65.401 581.386 65.401H551.041C550.149 65.401 549.297 64.5252 549.297 63.2724V60.402C549.297 59.1493 550.149 58.2734 551.041 58.2734Z" stroke="#030229"/>
<path d="M570.607 70.8438H609.088C609.98 70.8438 610.832 71.7196 610.832 72.9723V75.8953C610.832 77.148 609.98 78.0239 609.088 78.0239H570.607C569.715 78.0239 568.863 77.148 568.863 75.8953V72.9723C568.863 71.7196 569.715 70.8438 570.607 70.8438Z" fill="#00778B" stroke="#00778B"/>
<path d="M148.014 386.277C155.234 386.277 161.086 379.42 161.086 370.963C161.086 362.505 155.234 355.648 148.014 355.648C140.794 355.648 134.942 362.505 134.942 370.963C134.942 379.42 140.794 386.277 148.014 386.277Z" stroke="#030229" stroke-width="3.16921" stroke-linecap="round" stroke-linejoin="round"/>
<path d="M151.411 350.17V401.327C151.411 405.51 152.83 409.522 155.354 412.479C157.879 415.437 161.303 417.099 164.874 417.099H192.518C196.088 417.099 199.513 415.437 202.037 412.479C204.562 409.522 205.98 405.51 205.98 401.327V350.17H151.411Z" fill="#030229"/>
</g>
<defs>
<clipPath id="clip0_506_18734">
<rect width="740" height="420" fill="white"/>
</clipPath>
</defs>
</svg>
